<svg width="20" height="20" viewBox="0 0 20 20" fill="none" xmlns="http://www.w3.org/2000/svg">
    <path
        d="M6.09375 8.17734C6.09375 7.62474 6.31327 7.09477 6.70402 6.70402C7.09477 6.31327 7.62474 6.09375 8.17734 6.09375H14.9477C15.5003 6.09375 16.0302 6.31327 16.421 6.70402C16.8117 7.09477 17.0312 7.62474 17.0312 8.17734V14.9477C17.0312 15.2213 16.9774 15.4922 16.8726 15.745C16.7679 15.9978 16.6145 16.2275 16.421 16.421C16.2275 16.6145 15.9978 16.7679 15.745 16.8726C15.4922 16.9774 15.2213 17.0313 14.9477 17.0312H8.17734C7.90372 17.0312 7.63278 16.9774 7.37999 16.8726C7.12719 16.7679 6.8975 16.6145 6.70402 16.421C6.31327 16.0302 6.09375 15.5003 6.09375 14.9477V8.17734Z"
        stroke="currentColor" stroke-width="1.25" stroke-linecap="round" stroke-linejoin="round" />
    <path
        d="M3.75938 13.7008C3.5198 13.5642 3.32053 13.3668 3.1817 13.1285C3.04287 12.8902 2.96941 12.6195 2.96875 12.3438V4.53125C2.96875 3.67188 3.67188 2.96875 4.53125 2.96875H12.3438C12.9297 2.96875 13.2484 3.26953 13.5156 3.75"
        stroke="currentColor" stroke-width="1.25" stroke-linecap="round" stroke-linejoin="round" />
</svg>