<svg width="22" height="22" viewBox="0 0 22 22" fill="none" xmlns="http://www.w3.org/2000/svg">
<g clip-path="url(#clip0_124_1896)">
<path d="M4.125 3.4375L17.875 18.5625" stroke="#67676C" stroke-width="1.2" stroke-linecap="round" stroke-linejoin="round"/>
<path d="M13.3129 13.5437C12.6383 14.1571 11.7476 14.4773 10.8369 14.4339C9.92613 14.3906 9.06992 13.9872 8.45658 13.3126C7.84325 12.6379 7.52304 11.7473 7.56639 10.8365C7.60975 9.92579 8.01311 9.06957 8.68776 8.45624" stroke="#67676C" stroke-width="1.2" stroke-linecap="round" stroke-linejoin="round"/>
<path d="M11.6475 7.6235C12.3783 7.76345 13.0439 8.13676 13.5445 8.68734C14.045 9.23793 14.3534 9.93606 14.4232 10.6769" stroke="#67676C" stroke-width="1.2" stroke-linecap="round" stroke-linejoin="round"/>
<path d="M17.9273 14.532C19.8007 12.8545 20.6248 11 20.6248 11C20.6248 11 17.8748 4.81251 10.9998 4.81251C10.4045 4.8117 9.81008 4.85998 9.22266 4.95689" stroke="#67676C" stroke-width="1.2" stroke-linecap="round" stroke-linejoin="round"/>
<path d="M6.35938 5.89532C2.8557 7.66907 1.375 11 1.375 11C1.375 11 4.125 17.1875 11 17.1875C12.6109 17.2001 14.2017 16.829 15.6406 16.1047" stroke="#67676C" stroke-width="1.2" stroke-linecap="round" stroke-linejoin="round"/>
</g>
<defs>
<clipPath id="clip0_124_1896">
<rect width="22" height="22" fill="white"/>
</clipPath>
</defs>
</svg>
